<svg width="20" height="20" viewBox="0 0 20 20" fill="none" xmlns="http://www.w3.org/2000/svg">
<circle cx="10" cy="10" r="7.25" stroke="white" stroke-width="1.5"/>
<path d="M8.10071 6.66016C7.24178 9.1387 8.74779 12.0462 11.6331 13.4798L12.1143 13.7188" stroke="white" stroke-width="1.5" stroke-linecap="round"/>
<path d="M7.3547 6.5821C7.29796 6.31185 7.46975 6.04105 7.73842 5.97724L9.13758 5.64494C9.40625 5.58114 9.67005 5.74849 9.7268 6.01874L9.94626 7.06391C10.003 7.33416 9.83121 7.60496 9.56254 7.66877L8.16339 8.00106C7.89472 8.06487 7.63092 7.89752 7.57417 7.62727L7.3547 6.5821Z" fill="white"/>
<path d="M11.1917 13.532C10.9658 13.3732 10.9067 13.058 11.0595 12.828L11.7947 11.7223C11.9476 11.4924 12.2546 11.4347 12.4805 11.5936L13.4546 12.2787C13.6805 12.4376 13.7396 12.7528 13.5868 12.9827L12.8516 14.0884C12.6987 14.3184 12.3917 14.376 12.1658 14.2172L11.1917 13.532Z" fill="white"/>
</svg>
