<svg width="24" height="24" viewBox="0 0 24 24" fill="none" xmlns="http://www.w3.org/2000/svg">
<rect x="1" y="1" width="22" height="22" rx="4" stroke="white" stroke-width="2"/>
<mask id="path-2-inside-1_126_296" fill="white">
<path d="M12.7136 11.8864V17H10.6568V8.27273H12.6227V9.75568H12.725C12.9257 9.26705 13.2458 8.87879 13.6852 8.59091C14.1284 8.30303 14.6757 8.15909 15.3272 8.15909C15.9295 8.15909 16.4541 8.28788 16.9011 8.54545C17.3519 8.80303 17.7004 9.17614 17.9466 9.66477C18.1966 10.1534 18.3197 10.7462 18.3159 11.4432V17H16.2591V11.7614C16.2591 11.178 16.1076 10.7216 15.8045 10.392C15.5053 10.0625 15.0905 9.89773 14.5602 9.89773C14.2004 9.89773 13.8803 9.97727 13.6 10.1364C13.3235 10.2917 13.1057 10.517 12.9466 10.8125C12.7913 11.108 12.7136 11.4659 12.7136 11.8864Z"/>
</mask>
<path d="M12.7136 17V19H14.7136V17H12.7136ZM10.6568 17H8.65679V19H10.6568V17ZM10.6568 8.27273V6.27273H8.65679V8.27273H10.6568ZM12.6227 8.27273H14.6227V6.27273H12.6227V8.27273ZM12.6227 9.75568H10.6227V11.7557H12.6227V9.75568ZM12.725 9.75568V11.7557H14.0655L14.5749 10.5157L12.725 9.75568ZM13.6852 8.59091L12.5957 6.91368L12.5892 6.91799L13.6852 8.59091ZM16.9011 8.54545L15.9025 10.2783L15.9088 10.2819L16.9011 8.54545ZM17.9466 9.66477L16.1605 10.5648L16.1661 10.5757L17.9466 9.66477ZM18.3159 11.4432L16.3159 11.4323V11.4432H18.3159ZM18.3159 17V19H20.3159V17H18.3159ZM16.2591 17H14.2591V19H16.2591V17ZM15.8045 10.392L14.3238 11.7366L14.3323 11.7458L15.8045 10.392ZM13.6 10.1364L14.5794 11.8802L14.5872 11.8757L13.6 10.1364ZM12.9466 10.8125L11.1856 9.8643L11.1809 9.8731L11.1762 9.88194L12.9466 10.8125ZM12.7136 11.8864H10.7136V17H12.7136H14.7136V11.8864H12.7136ZM12.7136 17V15H10.6568V17V19H12.7136V17ZM10.6568 17H12.6568V8.27273H10.6568H8.65679V17H10.6568ZM10.6568 8.27273V10.2727H12.6227V8.27273V6.27273H10.6568V8.27273ZM12.6227 8.27273H10.6227V9.75568H12.6227H14.6227V8.27273H12.6227ZM12.6227 9.75568V11.7557H12.725V9.75568V7.75568H12.6227V9.75568ZM12.725 9.75568L14.5749 10.5157C14.6232 10.3982 14.6816 10.3291 14.7813 10.2638L13.6852 8.59091L12.5892 6.91799C11.8101 7.42843 11.2283 8.13585 10.875 8.99562L12.725 9.75568ZM13.6852 8.59091L14.7747 10.2681C14.8253 10.2353 14.9721 10.1591 15.3272 10.1591V8.15909V6.15909C14.3794 6.15909 13.4315 6.37081 12.5957 6.91369L13.6852 8.59091ZM15.3272 8.15909V10.1591C15.6382 10.1591 15.8068 10.2231 15.9025 10.2783L16.9011 8.54545L17.8997 6.81259C17.1015 6.35262 16.2208 6.15909 15.3272 6.15909V8.15909ZM16.9011 8.54545L15.9088 10.2819C15.9997 10.3339 16.081 10.4069 16.1605 10.5647L17.9466 9.66477L19.7326 8.76481C19.3197 7.94536 18.704 7.27218 17.8934 6.80897L16.9011 8.54545ZM17.9466 9.66477L16.1661 10.5757C16.2361 10.7125 16.3184 10.9715 16.3159 11.4323L18.3159 11.4432L20.3159 11.4541C20.3209 10.5209 20.1571 9.59431 19.7271 8.75382L17.9466 9.66477ZM18.3159 11.4432H16.3159V17H18.3159H20.3159V11.4432H18.3159ZM18.3159 17V15H16.2591V17V19H18.3159V17ZM16.2591 17H18.2591V11.7614H16.2591H14.2591V17H16.2591ZM16.2591 11.7614H18.2591C18.2591 10.8328 18.0119 9.8378 17.2767 9.0383L15.8045 10.392L14.3323 11.7458C14.3077 11.719 14.2874 11.6908 14.2721 11.6642C14.2569 11.638 14.2497 11.619 14.2473 11.6116C14.243 11.5987 14.2591 11.6398 14.2591 11.7614H16.2591ZM15.8045 10.392L17.2852 9.04755C16.5344 8.22079 15.5368 7.89773 14.5602 7.89773V9.89773V11.8977C14.6191 11.8977 14.598 11.9068 14.5306 11.88C14.4972 11.8667 14.459 11.8471 14.42 11.8202C14.381 11.7932 14.3488 11.764 14.3239 11.7365L15.8045 10.392ZM14.5602 9.89773V7.89773C13.8955 7.89773 13.2279 8.04784 12.6128 8.39699L13.6 10.1364L14.5872 11.8757C14.5771 11.8815 14.5666 11.8865 14.5564 11.8905C14.5462 11.8946 14.538 11.897 14.5326 11.8983C14.5213 11.9012 14.5282 11.8977 14.5602 11.8977V9.89773ZM13.6 10.1364L12.6206 8.39257C11.9938 8.74459 11.5136 9.25522 11.1856 9.8643L12.9466 10.8125L14.7075 11.7607C14.7063 11.7629 14.6945 11.7837 14.6674 11.8117C14.6398 11.8403 14.6084 11.8639 14.5794 11.8802L13.6 10.1364ZM12.9466 10.8125L11.1762 9.88194C10.8359 10.5293 10.7136 11.224 10.7136 11.8864H12.7136H14.7136C14.7136 11.7078 14.7466 11.6866 14.7169 11.7431L12.9466 10.8125Z" fill="white" mask="url(#path-2-inside-1_126_296)"/>
<path d="M7.91663 8.3L7.91663 17" stroke="white" stroke-width="2"/>
<circle cx="8" cy="6.5" r="1" fill="white"/>
</svg>
