<svg width="20" height="20" viewBox="0 0 20 20" fill="none" xmlns="http://www.w3.org/2000/svg">
<path d="M15 5.25C15.9665 5.25 16.75 6.0335 16.75 7V14C16.75 14.9665 15.9665 15.75 15 15.75H5C4.0335 15.75 3.25 14.9665 3.25 14V7C3.25 6.0335 4.0335 5.25 5 5.25H15Z" stroke="white" stroke-width="1.5" stroke-linejoin="round"/>
<path d="M4 5L8.50331 10.0807C9.29913 10.9785 10.7009 10.9785 11.4967 10.0807L16 5" stroke="white" stroke-width="1.5" stroke-linejoin="round"/>
<line y1="-0.75" x2="7.91488" y2="-0.75" transform="matrix(0.663307 0.748347 -0.663307 0.748347 10.75 10.0769)" stroke="white" stroke-width="1.5"/>
<line y1="-0.75" x2="7.91488" y2="-0.75" transform="matrix(-0.663307 0.748347 0.663307 0.748347 9.25 10.0769)" stroke="white" stroke-width="1.5"/>
</svg>
