<svg width="32" height="32" viewBox="0 0 32 32" fill="none" xmlns="http://www.w3.org/2000/svg">
<rect width="32" height="32" rx="3" fill="#27498C"/>
<path d="M12.0039 3.25C16.8386 3.25 20.7586 7.16923 20.7588 12.0039C20.7588 16.8387 16.8387 20.7588 12.0039 20.7588C7.16923 20.7586 3.25 16.8386 3.25 12.0039C3.25015 7.16932 7.16932 3.25015 12.0039 3.25Z" fill="#27498C" stroke="white" stroke-width="2.5"/>
<path d="M27.6879 26.2114C27.9843 26.5036 27.9857 26.9811 27.6913 27.2755L27.3343 27.6325C27.0429 27.9238 26.5713 27.9259 26.2778 27.6366L18.1647 19.6409C17.8681 19.3487 17.8661 18.8705 18.1606 18.5761L18.5176 18.2191C18.8089 17.9279 19.2806 17.926 19.5741 18.215L27.6879 26.2114Z" fill="#F5F5F5" stroke="white" stroke-width="2.5" stroke-linejoin="round"/>
<path d="M8.43485 9.20114C7.55782 9.93489 7 11.0375 7 12.2705C7 14.1343 8.27477 15.7004 10 16.1445" stroke="white" stroke-width="2.5" stroke-linecap="round"/>
<path d="M8.43481 9.20114C8.44618 9.19163 8.45761 9.18218 8.46908 9.17279" stroke="white" stroke-width="2.5" stroke-linecap="round"/>
</svg>
