<svg width="20" height="20" viewBox="0 0 20 20" fill="none" xmlns="http://www.w3.org/2000/svg">
<rect width="20" height="20" rx="3" fill="#27498C"/>
<path d="M7.7168 2.75C10.4598 2.75006 12.6836 4.97382 12.6836 7.7168C12.6835 10.4597 10.4597 12.6835 7.7168 12.6836C4.97382 12.6836 2.75007 10.4598 2.75 7.7168C2.75 4.97378 4.97378 2.75 7.7168 2.75Z" fill="#27498C" stroke="white" stroke-width="1.5"/>
<path d="M16.5498 15.7587C16.7622 15.968 16.7634 16.3102 16.5526 16.5211C16.3439 16.7295 16.0059 16.7309 15.7958 16.5238L11.3653 12.1569C11.1529 11.9476 11.1517 11.6054 11.3625 11.3945C11.5712 11.186 11.9092 11.1847 12.1194 11.3918L16.5498 15.7587Z" fill="#27498C" stroke="white" stroke-width="1.5" stroke-linejoin="round"/>
<path d="M6.20062 6C5.49393 6.30848 5 7.01349 5 7.83385C5 8.93842 5.89543 9.83385 7 9.83385" stroke="white" stroke-width="1.5" stroke-linecap="round"/>
</svg>
